<svg id="Layer_1" viewBox="0 0 60 60" xmlns="http://www.w3.org/2000/svg"><g><path d="m50.22 46.16c-.03-.12-.09-.23-.17-.33-4.46-5.77-6.52-11.92-6.96-20.9-.36.04-.72.07-1.09.07-4.96 0-9-4.04-9-9 0-1.91.6-3.67 1.61-5.13-.2-.07-.41-.13-.61-.19v-.68c0-1.07-.42-2.07-1.17-2.83-.76-.75-1.76-1.17-2.83-1.17-2.21 0-4 1.79-4 4v.67c-.75.24-1.48.53-2.17.91-4.11 2.21-6.74 6.65-6.86 11.58-.24 9.95-2.27 16.52-7.02 22.67-.08.1-.14.21-.17.33-.27.92-.09 1.88.48 2.64.58.76 1.45 1.2 2.4 1.2h12.44c.47 2.28 2.49 4 4.9 4s4.43-1.72 4.9-4h12.44c.95 0 1.82-.44 2.4-1.2.57-.76.75-1.72.48-2.64zm-18.22-35.97c-1.32-.2-2.68-.2-4 0v-.19c0-1.1.9-2 2-2 .53 0 1.03.21 1.41.59s.59.88.59 1.41z"></path><path d="m42 23c3.86 0 7-3.14 7-7s-3.14-7-7-7-7 3.14-7 7 3.14 7 7 7zm-1-10c0-.55.45-1 1-1s1 .45 1 1v2.59l1.71 1.71c.39.39.39 1.02 0 1.41-.2.19-.45.29-.71.29s-.51-.1-.71-.29l-2-2c-.18-.19-.29-.44-.29-.71z"></path></g></svg>